<svg xmlns="http://www.w3.org/2000/svg" xmlns:xlink="http://www.w3.org/1999/xlink" width="1366" zoomAndPan="magnify" viewBox="0 0 1024.5 576" height="768" preserveAspectRatio="xMidYMid meet" version="1.0"><defs><clipPath id="6e34581eaa"><path d="M 0 0.140625 L 1024 0.140625 L 1024 575.859375 L 0 575.859375 Z M 0 0.140625 " clip-rule="nonzero"/></clipPath><clipPath id="c21e5e9e7a"><path d="M 71 0.140625 L 556 0.140625 L 556 153 L 71 153 Z M 71 0.140625 " clip-rule="nonzero"/></clipPath><clipPath id="de01926885"><path d="M 862 14 L 1024 14 L 1024 374 L 862 374 Z M 862 14 " clip-rule="nonzero"/></clipPath><clipPath id="297b1f7711"><path d="M 941.25 -57.277344 L 1414.257812 102.472656 L 1298.160156 446.222656 L 825.152344 286.46875 Z M 941.25 -57.277344 " clip-rule="nonzero"/></clipPath><clipPath id="bb146c031c"><path d="M 941.25 -57.277344 L 1414.257812 102.472656 L 1298.160156 446.222656 L 825.152344 286.46875 Z M 941.25 -57.277344 " clip-rule="nonzero"/></clipPath><clipPath id="e4886ace41"><path d="M 599 415 L 1024 415 L 1024 575.859375 L 599 575.859375 Z M 599 415 " clip-rule="nonzero"/></clipPath><clipPath id="8070f1112f"><path d="M 602.5625 403.621094 L 1089.699219 414.691406 L 1081.660156 768.425781 L 594.523438 757.355469 Z M 602.5625 403.621094 " clip-rule="nonzero"/></clipPath><clipPath id="7d611a81f0"><path d="M 602.5625 403.621094 L 1089.699219 414.691406 L 1081.660156 768.425781 L 594.523438 757.355469 Z M 602.5625 403.621094 " clip-rule="nonzero"/></clipPath><clipPath id="a340398241"><path d="M 0 328 L 154 328 L 154 575.859375 L 0 575.859375 Z M 0 328 " clip-rule="nonzero"/></clipPath><clipPath id="ebda71d747"><path d="M -402.238281 430.917969 L 62.578125 248.707031 L 194.996094 586.503906 L -269.824219 768.714844 Z M -402.238281 430.917969 " clip-rule="nonzero"/></clipPath><clipPath id="ec44cbfbbd"><path d="M 62.46875 248.75 L -402.347656 430.960938 L -269.929688 768.757812 L 194.886719 586.546875 Z M 62.46875 248.75 " clip-rule="nonzero"/></clipPath></defs><g clip-path="url(#6e34581eaa)"><path fill="#ffffff" d="M 0 0.140625 L 1024 0.140625 L 1024 575.859375 L 0 575.859375 Z M 0 0.140625 " fill-opacity="1" fill-rule="nonzero"/><path fill="#ecf5ff" d="M 0 0.140625 L 1024 0.140625 L 1024 575.859375 L 0 575.859375 Z M 0 0.140625 " fill-opacity="1" fill-rule="nonzero"/></g><g clip-path="url(#c21e5e9e7a)"><path fill="#0ab067" d="M 291.054688 140.835938 C 313.375 140.648438 337.929688 138.371094 360.773438 139.214844 C 385.03125 140.15625 408.230469 148.242188 432.058594 152.039062 C 474.050781 157.863281 512.429688 129.847656 534.84375 96.539062 C 551.339844 72.933594 557.464844 43.457031 554.191406 14.921875 C 553.585938 5.382812 549.660156 -3 546.121094 -11.503906 C 541.386719 -22.878906 536.121094 -34.046875 528.4375 -43.820312 C 503.167969 -74.457031 467.453125 -93.691406 437.308594 -118.914062 C 434.359375 -121.25 432.3125 -124.292969 430.582031 -127.613281 C 421.175781 -146.984375 411.429688 -168.089844 390.769531 -177.640625 C 357.128906 -196.324219 313.015625 -190.9375 284.269531 -165.320312 C 277.101562 -158.789062 271.117188 -151.140625 263.851562 -144.753906 C 242.898438 -125.332031 222.199219 -101.679688 193.054688 -95.503906 C 162.210938 -92.84375 146.175781 -115.761719 113.113281 -105.34375 C 81.121094 -96.925781 70.292969 -59.71875 71.695312 -30.054688 C 74.070312 -3.195312 84.859375 22.371094 99.28125 44.917969 C 146.109375 112.050781 209.632812 142.308594 291.054688 140.835938 Z M 291.054688 140.835938 " fill-opacity="1" fill-rule="nonzero"/></g><g clip-path="url(#de01926885)"><g clip-path="url(#297b1f7711)"><g clip-path="url(#bb146c031c)"><path fill="#3e81f3" d="M 1089.320312 357.382812 C 1067.714844 349.882812 1044.625 339.625 1022.175781 332.953125 C 998.316406 325.910156 973.148438 326.15625 948.769531 322.03125 C 906.097656 313.917969 878.027344 274.140625 867.191406 234.457031 C 858.917969 206.136719 862.636719 175.511719 875.167969 148.886719 C 878.882812 139.824219 885.441406 132.972656 891.667969 125.882812 C 899.988281 116.390625 908.765625 107.273438 919.425781 100.304688 C 954 78.851562 994.976562 71.886719 1032.507812 57.285156 C 1036.136719 55.988281 1039.117188 53.703125 1041.886719 51.046875 C 1057.367188 35.328125 1073.75 18.035156 1096.9375 15.539062 C 1135.722656 8.429688 1176.773438 28.121094 1196.28125 62.414062 C 1201.09375 71.105469 1204.398438 80.488281 1209.355469 89.070312 C 1223.332031 114.796875 1235.671875 144.539062 1261.933594 160.089844 C 1291.003906 172.785156 1314.085938 155.796875 1342.765625 176.746094 C 1371.0625 195.40625 1369.375 235.078125 1358.285156 263.414062 C 1347.171875 288.707031 1328.320312 309.988281 1306.925781 327.144531 C 1239.457031 376.960938 1167.875 385.507812 1089.320312 357.382812 Z M 1089.320312 357.382812 " fill-opacity="1" fill-rule="nonzero"/></g></g></g><g clip-path="url(#e4886ace41)"><g clip-path="url(#8070f1112f)"><g clip-path="url(#7d611a81f0)"><path fill="#0ab067" d="M 861.246094 746.769531 C 838.9375 746.078125 814.441406 743.242188 791.585938 743.566406 C 767.3125 743.957031 743.9375 751.515625 720.027344 754.769531 C 677.914062 759.636719 640.179688 730.757812 618.53125 696.945312 C 602.574219 672.972656 597.121094 643.363281 601.042969 614.910156 C 601.863281 605.386719 605.976562 597.09375 609.710938 588.675781 C 614.699219 577.414062 620.21875 566.363281 628.121094 556.769531 C 654.082031 526.714844 690.222656 508.296875 720.9375 483.765625 C 723.9375 481.496094 726.050781 478.503906 727.855469 475.222656 C 737.699219 456.070312 747.925781 435.191406 768.796875 426.109375 C 802.855469 408.195312 846.832031 414.585938 874.988281 440.847656 C 882.003906 447.542969 887.816406 455.324219 894.933594 461.875 C 915.441406 481.765625 935.597656 505.882812 964.59375 512.71875 C 995.367188 516.078125 1011.921875 493.53125 1044.738281 504.695312 C 1076.53125 513.839844 1086.511719 551.285156 1084.433594 580.910156 C 1081.449219 607.710938 1070.082031 633.023438 1055.152344 655.234375 C 1006.808594 721.289062 942.617188 750.09375 861.246094 746.769531 Z M 861.246094 746.769531 " fill-opacity="1" fill-rule="nonzero"/></g></g></g><g clip-path="url(#a340398241)"><g clip-path="url(#ebda71d747)"><g clip-path="url(#ec44cbfbbd)"><path fill="#3e81f3" d="M -65.582031 670.019531 C -44.359375 661.496094 -21.789062 650.144531 0.316406 642.40625 C 23.808594 634.230469 48.960938 633.273438 73.113281 627.984375 C 115.347656 617.835938 141.484375 576.761719 150.40625 536.601562 C 157.316406 507.917969 152.136719 477.507812 138.34375 451.515625 C 134.199219 442.640625 127.320312 436.109375 120.761719 429.324219 C 111.996094 420.242188 102.792969 411.554688 91.8125 405.105469 C 56.253906 385.332031 14.988281 380.339844 -23.199219 367.550781 C -26.886719 366.425781 -29.972656 364.289062 -32.867188 361.769531 C -49.082031 346.808594 -66.273438 330.320312 -89.554688 328.933594 C -128.632812 323.691406 -168.695312 345.324219 -186.539062 380.511719 C -190.933594 389.421875 -193.785156 398.957031 -198.324219 407.765625 C -211.050781 434.128906 -221.953125 464.429688 -247.441406 481.21875 C -275.871094 495.289062 -299.738281 479.425781 -327.382812 501.726562 C -354.753906 521.71875 -351.167969 561.261719 -338.734375 589.035156 C -326.425781 613.769531 -306.574219 634.121094 -284.386719 650.238281 C -214.609375 696.765625 -142.703125 701.875 -65.582031 670.019531 Z M -65.582031 670.019531 " fill-opacity="1" fill-rule="nonzero"/></g></g></g></svg>