<svg xmlns="http://www.w3.org/2000/svg" xmlns:xlink="http://www.w3.org/1999/xlink" width="500" zoomAndPan="magnify" viewBox="0 0 375 374.999991" height="500" preserveAspectRatio="xMidYMid meet" version="1.0"><path fill="#3e81f3" d="M 53.796875 306.414062 L 3.050781 263.410156 C 0.539062 261.273438 0.539062 257.78125 3.050781 255.652344 L 53.796875 212.640625 C 56.308594 210.503906 58.363281 211.460938 58.363281 214.765625 L 58.363281 236.914062 L 119.765625 236.914062 C 123.074219 236.914062 125.769531 239.613281 125.769531 242.921875 L 125.769531 276.167969 C 125.769531 279.460938 123.085938 282.160156 119.765625 282.160156 L 58.363281 282.160156 L 58.363281 304.3125 C 58.363281 307.59375 56.308594 308.550781 53.796875 306.414062 Z M 53.796875 306.414062 " fill-opacity="1" fill-rule="nonzero"/><path fill="#09b067" d="M 119.753906 296.015625 L 96.074219 296.015625 L 96.074219 323.773438 C 96.074219 327.582031 99.183594 330.710938 102.992188 330.710938 L 132.910156 330.710938 L 132.910156 290.957031 C 129.390625 294.066406 124.824219 296.015625 119.753906 296.015625 Z M 119.753906 296.015625 " fill-opacity="1" fill-rule="nonzero"/><path fill="#09b067" d="M 371.25 113.84375 L 230.699219 45.152344 C 228.644531 44.136719 225.292969 44.136719 223.234375 45.152344 L 82.6875 113.84375 C 80.628906 114.859375 78.960938 117.546875 78.960938 119.835938 L 78.960938 147.933594 C 78.960938 150.199219 80.828125 152.066406 83.109375 152.066406 L 96.0625 152.066406 L 96.0625 223.027344 L 119.742188 223.027344 C 124.8125 223.027344 129.371094 224.976562 132.886719 228.109375 L 132.886719 217.78125 L 321.027344 217.78125 L 321.027344 330.699219 L 350.945312 330.699219 C 354.753906 330.699219 357.886719 327.570312 357.886719 323.761719 L 357.886719 152.078125 L 370.839844 152.078125 C 373.117188 152.078125 374.988281 150.210938 374.988281 147.945312 L 374.988281 119.835938 C 374.988281 117.546875 373.292969 114.859375 371.25 113.84375 Z M 207.054688 119.976562 L 246.871094 119.976562 C 251.660156 119.976562 255.539062 123.84375 255.539062 128.621094 C 255.539062 133.398438 251.660156 137.277344 246.871094 137.277344 L 207.054688 137.277344 C 202.289062 137.277344 198.410156 133.398438 198.410156 128.621094 C 198.410156 123.84375 202.289062 119.976562 207.054688 119.976562 Z M 130.023438 137.277344 C 125.234375 137.277344 121.355469 133.398438 121.355469 128.621094 C 121.355469 123.84375 125.234375 119.976562 130.023438 119.976562 L 169.835938 119.976562 C 174.601562 119.976562 178.480469 123.84375 178.480469 128.621094 C 178.480469 133.398438 174.601562 137.277344 169.835938 137.277344 Z M 321.027344 207.40625 L 132.898438 207.40625 L 132.898438 192.675781 L 321.027344 192.675781 Z M 321.027344 182.300781 L 132.898438 182.300781 L 132.898438 166.4375 L 321.027344 166.4375 Z M 323.925781 137.277344 L 284.089844 137.277344 C 279.324219 137.277344 275.445312 133.398438 275.445312 128.621094 C 275.445312 123.84375 279.324219 119.976562 284.089844 119.976562 L 323.925781 119.976562 C 328.691406 119.976562 332.570312 123.84375 332.570312 128.621094 C 332.570312 133.398438 328.691406 137.277344 323.925781 137.277344 Z M 323.925781 137.277344 " fill-opacity="1" fill-rule="nonzero"/><path fill="#3e81f3" d="M 192.839844 327.242188 C 192.839844 329.148438 191.261719 330.710938 189.371094 330.710938 L 145.222656 330.710938 C 143.328125 330.710938 141.753906 329.148438 141.753906 327.242188 L 141.753906 300.875 C 141.753906 298.972656 143.328125 297.417969 145.222656 297.417969 L 189.371094 297.417969 C 191.261719 297.417969 192.839844 298.972656 192.839844 300.875 Z M 192.839844 327.242188 " fill-opacity="1" fill-rule="nonzero"/><path fill="#3e81f3" d="M 248.679688 327.242188 C 248.679688 329.148438 247.101562 330.710938 245.210938 330.710938 L 201.050781 330.710938 C 199.160156 330.710938 197.582031 329.148438 197.582031 327.242188 L 197.582031 300.875 C 197.582031 298.972656 199.160156 297.417969 201.050781 297.417969 L 245.199219 297.417969 C 247.089844 297.417969 248.667969 298.972656 248.667969 300.875 L 248.667969 327.242188 Z M 248.679688 327.242188 " fill-opacity="1" fill-rule="nonzero"/><path fill="#3e81f3" d="M 248.679688 289.589844 C 248.679688 291.496094 247.101562 293.050781 245.210938 293.050781 L 201.050781 293.050781 C 199.160156 293.050781 197.582031 291.496094 197.582031 289.589844 L 197.582031 253.703125 C 197.582031 251.800781 199.160156 250.246094 201.050781 250.246094 L 245.199219 250.246094 C 247.089844 250.246094 248.667969 251.800781 248.667969 253.703125 L 248.667969 289.589844 Z M 248.679688 289.589844 " fill-opacity="1" fill-rule="nonzero"/><path fill="#3e81f3" d="M 294.765625 277.464844 C 294.765625 279.378906 293.1875 280.933594 291.296875 280.933594 L 256.890625 280.933594 C 254.976562 280.933594 253.421875 279.378906 253.421875 277.464844 L 253.421875 241.589844 C 253.421875 239.683594 254.976562 238.128906 256.890625 238.128906 L 291.296875 238.128906 C 293.1875 238.128906 294.765625 239.683594 294.765625 241.589844 Z M 294.765625 277.464844 " fill-opacity="1" fill-rule="nonzero"/><path fill="#3e81f3" d="M 192.839844 289.589844 C 192.839844 291.496094 191.261719 293.050781 189.371094 293.050781 L 154.964844 293.050781 C 153.050781 293.050781 151.496094 291.496094 151.496094 289.589844 L 151.496094 261.925781 C 151.496094 260.023438 153.050781 258.457031 154.964844 258.457031 L 189.371094 258.457031 C 191.261719 258.457031 192.839844 260.023438 192.839844 261.925781 Z M 192.839844 289.589844 " fill-opacity="1" fill-rule="nonzero"/><path fill="#3e81f3" d="M 311.859375 327.242188 C 311.859375 329.148438 310.304688 330.710938 308.386719 330.710938 L 256.890625 330.710938 C 254.976562 330.710938 253.421875 329.148438 253.421875 327.242188 L 253.421875 288.773438 C 253.421875 286.859375 254.976562 285.292969 256.890625 285.292969 L 308.386719 285.292969 C 310.304688 285.292969 311.859375 286.859375 311.859375 288.773438 Z M 311.859375 327.242188 " fill-opacity="1" fill-rule="nonzero"/></svg>