<svg xmlns="http://www.w3.org/2000/svg" xmlns:xlink="http://www.w3.org/1999/xlink" width="500" zoomAndPan="magnify" viewBox="0 0 375 374.999991" height="500" preserveAspectRatio="xMidYMid meet" version="1.0"><path fill="#3e81f3" d="M 72.210938 212.71875 L 123.117188 255.855469 C 125.636719 258 125.636719 261.503906 123.117188 263.636719 L 72.210938 306.785156 C 69.691406 308.929688 67.628906 307.96875 67.628906 304.652344 L 67.628906 282.433594 L 6.023438 282.433594 C 2.71875 282.445312 0 279.726562 0 276.421875 L 0 243.070312 C 0 239.765625 2.71875 237.058594 6.023438 237.058594 L 67.640625 237.058594 L 67.640625 214.839844 C 67.628906 211.535156 69.691406 210.574219 72.210938 212.71875 Z M 72.210938 212.71875 " fill-opacity="1" fill-rule="nonzero"/><path fill="#09b067" d="M 132.082031 274.277344 L 95.214844 305.542969 L 95.214844 324.199219 C 95.214844 328.019531 98.355469 331.160156 102.175781 331.160156 L 132.1875 331.160156 L 132.1875 274.195312 C 132.128906 274.21875 132.105469 274.253906 132.082031 274.277344 Z M 132.082031 274.277344 " fill-opacity="1" fill-rule="nonzero"/><path fill="#09b067" d="M 371.273438 113.625 L 230.273438 44.707031 C 228.210938 43.6875 224.824219 43.6875 222.785156 44.707031 L 81.785156 113.625 C 79.746094 114.632812 78.046875 117.328125 78.046875 119.625 L 78.046875 147.808594 C 78.046875 150.082031 79.921875 151.957031 82.207031 151.957031 L 95.203125 151.957031 L 95.203125 213.949219 L 132.09375 245.226562 C 132.117188 245.25 132.140625 245.273438 132.164062 245.296875 L 132.164062 217.875 L 320.859375 217.875 L 320.859375 331.148438 L 350.894531 331.148438 C 354.691406 331.148438 357.832031 328.007812 357.832031 324.1875 L 357.832031 151.96875 L 370.828125 151.96875 C 373.125 151.96875 375 150.09375 375 147.808594 L 375 119.625 C 375 117.328125 373.324219 114.632812 371.273438 113.625 Z M 206.566406 119.765625 L 246.503906 119.765625 C 251.285156 119.765625 255.175781 123.644531 255.175781 128.4375 C 255.175781 133.230469 251.285156 137.121094 246.503906 137.121094 L 206.566406 137.121094 C 201.761719 137.121094 197.871094 133.230469 197.871094 128.4375 C 197.871094 123.644531 201.761719 119.765625 206.566406 119.765625 Z M 129.269531 137.121094 C 124.488281 137.121094 120.597656 133.230469 120.597656 128.4375 C 120.597656 123.644531 124.488281 119.765625 129.269531 119.765625 L 169.207031 119.765625 C 174.011719 119.765625 177.902344 123.644531 177.902344 128.4375 C 177.902344 133.230469 174.011719 137.121094 169.207031 137.121094 Z M 320.871094 207.480469 L 132.175781 207.480469 L 132.175781 192.691406 L 320.871094 192.691406 Z M 320.871094 182.285156 L 132.175781 182.285156 L 132.175781 166.371094 L 320.871094 166.371094 Z M 323.777344 137.121094 L 283.839844 137.121094 C 279.035156 137.121094 275.167969 133.230469 275.167969 128.4375 C 275.167969 123.644531 279.035156 119.765625 283.839844 119.765625 L 323.777344 119.765625 C 328.582031 119.765625 332.449219 123.644531 332.449219 128.4375 C 332.449219 133.230469 328.582031 137.121094 323.777344 137.121094 Z M 323.777344 137.121094 " fill-opacity="1" fill-rule="nonzero"/><path fill="#3e81f3" d="M 192.28125 327.679688 C 192.28125 329.589844 190.722656 331.160156 188.800781 331.160156 L 144.515625 331.160156 C 142.617188 331.160156 141.058594 329.589844 141.058594 327.679688 L 141.058594 301.230469 C 141.058594 299.320312 142.617188 297.761719 144.515625 297.761719 L 188.800781 297.761719 C 190.722656 297.761719 192.28125 299.320312 192.28125 301.230469 Z M 192.28125 327.679688 " fill-opacity="1" fill-rule="nonzero"/><path fill="#3e81f3" d="M 248.296875 327.679688 C 248.296875 329.589844 246.738281 331.160156 244.816406 331.160156 L 200.53125 331.160156 C 198.632812 331.160156 197.074219 329.589844 197.074219 327.679688 L 197.074219 301.230469 C 197.074219 299.320312 198.632812 297.761719 200.53125 297.761719 L 244.816406 297.761719 C 246.738281 297.761719 248.296875 299.320312 248.296875 301.230469 Z M 248.296875 327.679688 " fill-opacity="1" fill-rule="nonzero"/><path fill="#3e81f3" d="M 248.296875 289.910156 C 248.296875 291.820312 246.738281 293.378906 244.816406 293.378906 L 200.53125 293.378906 C 198.632812 293.378906 197.074219 291.820312 197.074219 289.910156 L 197.074219 253.910156 C 197.074219 252 198.632812 250.441406 200.53125 250.441406 L 244.816406 250.441406 C 246.738281 250.441406 248.296875 252 248.296875 253.910156 Z M 248.296875 289.910156 " fill-opacity="1" fill-rule="nonzero"/><path fill="#3e81f3" d="M 294.527344 277.746094 C 294.527344 279.667969 292.96875 281.226562 291.046875 281.226562 L 256.535156 281.226562 C 254.636719 281.226562 253.078125 279.667969 253.078125 277.746094 L 253.078125 241.757812 C 253.078125 239.847656 254.636719 238.289062 256.535156 238.289062 L 291.046875 238.289062 C 292.96875 238.289062 294.527344 239.847656 294.527344 241.757812 Z M 294.527344 277.746094 " fill-opacity="1" fill-rule="nonzero"/><path fill="#3e81f3" d="M 192.28125 289.910156 C 192.28125 291.820312 190.722656 293.378906 188.800781 293.378906 L 154.289062 293.378906 C 152.390625 293.378906 150.832031 291.820312 150.832031 289.910156 L 150.832031 262.160156 C 150.832031 260.25 152.390625 258.679688 154.289062 258.679688 L 188.800781 258.679688 C 190.722656 258.679688 192.28125 260.25 192.28125 262.160156 Z M 192.28125 289.910156 " fill-opacity="1" fill-rule="nonzero"/><path fill="#3e81f3" d="M 311.671875 327.679688 C 311.671875 329.589844 310.113281 331.160156 308.214844 331.160156 L 256.535156 331.160156 C 254.636719 331.160156 253.078125 329.589844 253.078125 327.679688 L 253.078125 289.089844 C 253.078125 287.167969 254.636719 285.597656 256.535156 285.597656 L 308.214844 285.597656 C 310.113281 285.597656 311.671875 287.167969 311.671875 289.089844 Z M 311.671875 327.679688 " fill-opacity="1" fill-rule="nonzero"/></svg>