<svg xmlns="http://www.w3.org/2000/svg" xmlns:xlink="http://www.w3.org/1999/xlink" width="500" zoomAndPan="magnify" viewBox="0 0 375 374.999991" height="500" preserveAspectRatio="xMidYMid meet" version="1.0"><defs><clipPath id="c572d0d4e8"><path d="M 24.84375 0 L 310 0 L 310 367 L 24.84375 367 Z M 24.84375 0 " clip-rule="nonzero"/></clipPath><clipPath id="544791d07e"><path d="M 48 25 L 350.34375 25 L 350.34375 370 L 48 370 Z M 48 25 " clip-rule="nonzero"/></clipPath></defs><g clip-path="url(#c572d0d4e8)"><path fill="#09b067" d="M 298.894531 216.53125 L 298.894531 78.582031 L 235.671875 78.582031 C 235.335938 78.582031 235.003906 78.550781 234.671875 78.488281 C 234.34375 78.421875 234.023438 78.324219 233.710938 78.199219 C 233.398438 78.070312 233.105469 77.910156 232.824219 77.726562 C 232.542969 77.539062 232.285156 77.324219 232.046875 77.085938 C 231.808594 76.847656 231.597656 76.589844 231.410156 76.3125 C 231.222656 76.03125 231.066406 75.734375 230.9375 75.425781 C 230.808594 75.113281 230.714844 74.792969 230.648438 74.460938 C 230.582031 74.132812 230.550781 73.796875 230.550781 73.460938 L 230.550781 10.242188 L 35.0625 10.242188 L 35.0625 356.203125 L 219.855469 356.203125 C 223.8125 360.058594 228.113281 363.472656 232.769531 366.445312 L 29.960938 366.445312 C 29.625 366.445312 29.292969 366.414062 28.960938 366.351562 C 28.632812 366.285156 28.3125 366.1875 28 366.058594 C 27.6875 365.933594 27.394531 365.773438 27.113281 365.585938 C 26.832031 365.402344 26.574219 365.1875 26.335938 364.949219 C 26.097656 364.710938 25.886719 364.453125 25.699219 364.171875 C 25.511719 363.894531 25.355469 363.597656 25.226562 363.285156 C 25.097656 362.976562 25 362.65625 24.9375 362.324219 C 24.871094 361.996094 24.839844 361.660156 24.839844 361.324219 L 24.839844 5.121094 C 24.839844 4.785156 24.875 4.453125 24.941406 4.121094 C 25.003906 3.792969 25.101562 3.472656 25.230469 3.160156 C 25.359375 2.851562 25.519531 2.554688 25.703125 2.277344 C 25.890625 1.996094 26.101562 1.738281 26.339844 1.5 C 26.578125 1.261719 26.835938 1.050781 27.117188 0.863281 C 27.398438 0.675781 27.691406 0.519531 28.003906 0.390625 C 28.3125 0.261719 28.632812 0.164062 28.964844 0.0976562 C 29.292969 0.03125 29.625 0 29.960938 0 L 235.675781 0 C 236.363281 0 237.023438 0.136719 237.65625 0.40625 C 238.289062 0.675781 238.84375 1.058594 239.324219 1.554688 L 307.625 69.855469 C 308.101562 70.332031 308.472656 70.886719 308.730469 71.511719 C 308.988281 72.136719 309.117188 72.785156 309.117188 73.460938 L 309.136719 219.996094 C 305.796875 218.617188 302.386719 217.460938 298.894531 216.53125 Z M 114.910156 258.613281 C 114.570312 258.613281 114.238281 258.644531 113.910156 258.710938 C 113.578125 258.777344 113.257812 258.871094 112.949219 259 C 112.636719 259.128906 112.34375 259.289062 112.0625 259.472656 C 111.785156 259.660156 111.523438 259.875 111.289062 260.113281 C 111.050781 260.347656 110.835938 260.609375 110.648438 260.886719 C 110.464844 261.167969 110.304688 261.460938 110.175781 261.773438 C 110.046875 262.082031 109.953125 262.402344 109.886719 262.734375 C 109.820312 263.0625 109.789062 263.394531 109.789062 263.734375 C 109.789062 264.070312 109.820312 264.402344 109.886719 264.730469 C 109.953125 265.0625 110.046875 265.382812 110.175781 265.691406 C 110.304688 266.003906 110.464844 266.296875 110.648438 266.578125 C 110.835938 266.855469 111.050781 267.117188 111.289062 267.355469 C 111.523438 267.589844 111.785156 267.804688 112.0625 267.992188 C 112.34375 268.175781 112.636719 268.335938 112.949219 268.464844 C 113.257812 268.59375 113.578125 268.691406 113.910156 268.753906 C 114.238281 268.820312 114.570312 268.855469 114.910156 268.855469 L 199.378906 268.855469 C 200.613281 265.335938 202.09375 261.921875 203.8125 258.613281 Z M 114.910156 331.410156 L 202.214844 331.410156 C 200.683594 328.082031 199.371094 324.667969 198.277344 321.167969 L 114.910156 321.167969 C 114.574219 321.167969 114.238281 321.203125 113.910156 321.269531 C 113.582031 321.332031 113.261719 321.429688 112.953125 321.558594 C 112.640625 321.6875 112.347656 321.847656 112.066406 322.035156 C 111.789062 322.222656 111.53125 322.433594 111.292969 322.671875 C 111.054688 322.910156 110.84375 323.167969 110.660156 323.445312 C 110.472656 323.726562 110.316406 324.019531 110.1875 324.332031 C 110.058594 324.640625 109.960938 324.960938 109.894531 325.292969 C 109.828125 325.621094 109.796875 325.953125 109.796875 326.289062 C 109.796875 326.625 109.828125 326.957031 109.894531 327.285156 C 109.960938 327.617188 110.058594 327.9375 110.1875 328.246094 C 110.316406 328.558594 110.472656 328.851562 110.660156 329.132812 C 110.84375 329.410156 111.054688 329.667969 111.292969 329.90625 C 111.53125 330.144531 111.789062 330.355469 112.066406 330.542969 C 112.347656 330.730469 112.640625 330.886719 112.953125 331.015625 C 113.261719 331.144531 113.582031 331.242188 113.910156 331.308594 C 114.238281 331.375 114.574219 331.410156 114.910156 331.410156 Z M 114.910156 289.890625 C 114.570312 289.890625 114.238281 289.925781 113.910156 289.988281 C 113.578125 290.054688 113.257812 290.152344 112.949219 290.28125 C 112.636719 290.410156 112.34375 290.566406 112.0625 290.753906 C 111.785156 290.941406 111.523438 291.152344 111.289062 291.390625 C 111.050781 291.628906 110.835938 291.886719 110.648438 292.167969 C 110.464844 292.445312 110.304688 292.742188 110.175781 293.050781 C 110.046875 293.363281 109.953125 293.683594 109.886719 294.011719 C 109.820312 294.34375 109.789062 294.675781 109.789062 295.011719 C 109.789062 295.347656 109.820312 295.679688 109.886719 296.011719 C 109.953125 296.339844 110.046875 296.660156 110.175781 296.972656 C 110.304688 297.28125 110.464844 297.578125 110.648438 297.855469 C 110.835938 298.136719 111.050781 298.394531 111.289062 298.632812 C 111.523438 298.871094 111.785156 299.082031 112.0625 299.269531 C 112.34375 299.457031 112.636719 299.613281 112.949219 299.742188 C 113.257812 299.871094 113.578125 299.96875 113.910156 300.035156 C 114.238281 300.101562 114.570312 300.132812 114.910156 300.132812 L 194.671875 300.132812 C 194.628906 298.972656 194.589844 297.8125 194.589844 296.628906 C 194.589844 294.371094 194.691406 292.113281 194.859375 289.894531 Z M 273.003906 196.03125 L 114.910156 196.03125 C 114.570312 196.03125 114.238281 196.0625 113.910156 196.128906 C 113.578125 196.195312 113.257812 196.292969 112.949219 196.421875 C 112.636719 196.550781 112.34375 196.707031 112.0625 196.894531 C 111.785156 197.082031 111.523438 197.292969 111.289062 197.53125 C 111.050781 197.769531 110.835938 198.027344 110.648438 198.308594 C 110.464844 198.585938 110.304688 198.882812 110.175781 199.191406 C 110.046875 199.503906 109.953125 199.824219 109.886719 200.152344 C 109.820312 200.484375 109.789062 200.816406 109.789062 201.152344 C 109.789062 201.488281 109.820312 201.820312 109.886719 202.152344 C 109.953125 202.480469 110.046875 202.800781 110.175781 203.113281 C 110.304688 203.421875 110.464844 203.71875 110.648438 203.996094 C 110.835938 204.277344 111.050781 204.535156 111.289062 204.773438 C 111.523438 205.011719 111.785156 205.222656 112.0625 205.410156 C 112.34375 205.597656 112.636719 205.753906 112.949219 205.882812 C 113.257812 206.011719 113.578125 206.109375 113.910156 206.175781 C 114.238281 206.242188 114.570312 206.273438 114.910156 206.273438 L 273.003906 206.273438 C 273.34375 206.273438 273.675781 206.242188 274.003906 206.175781 C 274.335938 206.109375 274.65625 206.011719 274.964844 205.882812 C 275.277344 205.753906 275.570312 205.597656 275.851562 205.410156 C 276.128906 205.222656 276.390625 205.011719 276.625 204.773438 C 276.863281 204.535156 277.078125 204.277344 277.265625 203.996094 C 277.449219 203.71875 277.609375 203.421875 277.738281 203.113281 C 277.867188 202.800781 277.960938 202.480469 278.027344 202.152344 C 278.09375 201.820312 278.125 201.488281 278.125 201.152344 C 278.125 200.816406 278.09375 200.484375 278.027344 200.152344 C 277.960938 199.824219 277.867188 199.503906 277.738281 199.191406 C 277.609375 198.882812 277.449219 198.585938 277.261719 198.308594 C 277.078125 198.027344 276.863281 197.769531 276.625 197.53125 C 276.390625 197.292969 276.128906 197.082031 275.851562 196.894531 C 275.570312 196.707031 275.277344 196.550781 274.964844 196.421875 C 274.65625 196.292969 274.335938 196.195312 274.003906 196.128906 C 273.675781 196.0625 273.34375 196.03125 273.003906 196.03125 Z M 273.003906 164.75 L 114.910156 164.75 C 114.570312 164.75 114.238281 164.785156 113.910156 164.847656 C 113.578125 164.914062 113.257812 165.011719 112.949219 165.140625 C 112.636719 165.269531 112.34375 165.425781 112.0625 165.613281 C 111.785156 165.800781 111.523438 166.011719 111.289062 166.25 C 111.050781 166.488281 110.835938 166.746094 110.648438 167.027344 C 110.464844 167.308594 110.304688 167.601562 110.175781 167.914062 C 110.046875 168.222656 109.953125 168.542969 109.886719 168.875 C 109.820312 169.203125 109.789062 169.535156 109.789062 169.871094 C 109.789062 170.207031 109.820312 170.542969 109.886719 170.871094 C 109.953125 171.203125 110.046875 171.519531 110.175781 171.832031 C 110.304688 172.144531 110.464844 172.4375 110.648438 172.71875 C 110.835938 172.996094 111.050781 173.253906 111.289062 173.492188 C 111.523438 173.730469 111.785156 173.945312 112.0625 174.128906 C 112.34375 174.316406 112.636719 174.476562 112.949219 174.605469 C 113.257812 174.730469 113.578125 174.828125 113.910156 174.894531 C 114.238281 174.960938 114.570312 174.992188 114.910156 174.992188 L 273.003906 174.992188 C 273.34375 174.992188 273.675781 174.960938 274.003906 174.894531 C 274.335938 174.828125 274.65625 174.730469 274.964844 174.605469 C 275.277344 174.476562 275.570312 174.316406 275.851562 174.128906 C 276.128906 173.945312 276.390625 173.730469 276.625 173.492188 C 276.863281 173.253906 277.078125 172.996094 277.265625 172.71875 C 277.449219 172.4375 277.609375 172.144531 277.738281 171.832031 C 277.867188 171.519531 277.960938 171.203125 278.027344 170.871094 C 278.09375 170.542969 278.125 170.207031 278.125 169.871094 C 278.125 169.535156 278.09375 169.203125 278.027344 168.875 C 277.960938 168.542969 277.867188 168.222656 277.738281 167.914062 C 277.609375 167.601562 277.449219 167.308594 277.261719 167.027344 C 277.078125 166.746094 276.863281 166.488281 276.625 166.25 C 276.390625 166.011719 276.128906 165.800781 275.851562 165.613281 C 275.570312 165.425781 275.277344 165.269531 274.964844 165.140625 C 274.65625 165.011719 274.335938 164.914062 274.003906 164.847656 C 273.675781 164.785156 273.34375 164.75 273.003906 164.75 Z M 232.023438 227.308594 L 114.910156 227.308594 C 114.570312 227.308594 114.238281 227.34375 113.910156 227.410156 C 113.578125 227.472656 113.257812 227.570312 112.949219 227.699219 C 112.636719 227.828125 112.34375 227.988281 112.0625 228.171875 C 111.785156 228.359375 111.523438 228.574219 111.289062 228.808594 C 111.050781 229.046875 110.835938 229.308594 110.648438 229.585938 C 110.464844 229.867188 110.304688 230.160156 110.175781 230.472656 C 110.046875 230.78125 109.953125 231.101562 109.886719 231.433594 C 109.820312 231.761719 109.789062 232.09375 109.789062 232.429688 C 109.789062 232.769531 109.820312 233.101562 109.886719 233.429688 C 109.953125 233.761719 110.046875 234.082031 110.175781 234.390625 C 110.304688 234.703125 110.464844 234.996094 110.648438 235.277344 C 110.835938 235.554688 111.050781 235.816406 111.289062 236.050781 C 111.523438 236.289062 111.785156 236.503906 112.0625 236.691406 C 112.34375 236.875 112.636719 237.035156 112.949219 237.164062 C 113.257812 237.292969 113.578125 237.386719 113.910156 237.453125 C 114.238281 237.519531 114.570312 237.550781 114.910156 237.550781 L 219.339844 237.550781 C 223.234375 233.726562 227.464844 230.3125 232.023438 227.308594 Z M 92.230469 169.871094 L 60.953125 169.871094 L 60.953125 201.152344 L 92.230469 201.152344 Z M 92.230469 232.429688 L 60.953125 232.429688 L 60.953125 263.730469 L 92.230469 263.730469 Z M 60.953125 326.289062 L 92.230469 326.289062 L 92.230469 295.007812 L 60.953125 295.007812 Z M 60.953125 326.289062 " fill-opacity="1" fill-rule="evenodd"/></g><g clip-path="url(#544791d07e)"><path fill="#3e81f3" d="M 178.296875 46.867188 C 177.867188 46.75 177.433594 46.695312 176.992188 46.703125 L 176.992188 46.679688 L 81.320312 46.679688 L 76.769531 29.433594 C 76.65625 28.851562 76.449219 28.304688 76.148438 27.792969 C 75.84375 27.28125 75.464844 26.835938 75.007812 26.457031 C 74.550781 26.078125 74.039062 25.789062 73.480469 25.589844 C 72.921875 25.386719 72.34375 25.289062 71.75 25.289062 L 53.324219 25.289062 C 52.984375 25.285156 52.652344 25.316406 52.316406 25.378906 C 51.984375 25.441406 51.664062 25.535156 51.351562 25.660156 C 51.035156 25.789062 50.738281 25.941406 50.457031 26.128906 C 50.171875 26.316406 49.910156 26.527344 49.671875 26.765625 C 49.429688 27 49.214844 27.261719 49.027344 27.539062 C 48.839844 27.820312 48.679688 28.117188 48.546875 28.429688 C 48.417969 28.742188 48.320312 29.0625 48.253906 29.394531 C 48.1875 29.726562 48.152344 30.058594 48.152344 30.398438 C 48.152344 30.738281 48.1875 31.070312 48.253906 31.402344 C 48.320312 31.734375 48.417969 32.054688 48.546875 32.367188 C 48.679688 32.679688 48.839844 32.976562 49.027344 33.257812 C 49.214844 33.535156 49.429688 33.796875 49.671875 34.03125 C 49.910156 34.269531 50.171875 34.480469 50.457031 34.667969 C 50.738281 34.855469 51.035156 35.011719 51.351562 35.136719 C 51.664062 35.261719 51.984375 35.359375 52.316406 35.421875 C 52.652344 35.484375 52.984375 35.511719 53.324219 35.507812 L 67.8125 35.507812 L 72.304688 52.519531 C 72.359375 52.933594 72.46875 53.335938 72.621094 53.726562 L 76.589844 68.761719 C 76.644531 69.273438 76.773438 69.769531 76.980469 70.242188 L 80.867188 84.960938 C 80.910156 85.605469 81.074219 86.21875 81.351562 86.800781 L 84.101562 97.21875 C 82.386719 98 80.859375 99.058594 79.523438 100.390625 C 78.988281 100.925781 78.496094 101.496094 78.046875 102.105469 C 77.597656 102.710938 77.195312 103.347656 76.839844 104.015625 C 76.484375 104.679688 76.179688 105.371094 75.925781 106.082031 C 75.671875 106.792969 75.472656 107.519531 75.324219 108.261719 C 75.179688 109 75.085938 109.75 75.050781 110.503906 C 75.011719 111.257812 75.03125 112.011719 75.105469 112.761719 C 75.179688 113.515625 75.308594 114.257812 75.492188 114.988281 C 75.675781 115.722656 75.910156 116.4375 76.199219 117.136719 C 76.488281 117.832031 76.828125 118.507812 77.214844 119.152344 C 77.601562 119.800781 78.035156 120.417969 78.515625 121.003906 C 78.996094 121.585938 79.511719 122.132812 80.074219 122.640625 C 80.632812 123.148438 81.226562 123.613281 81.851562 124.03125 C 82.480469 124.453125 83.136719 124.824219 83.816406 125.148438 C 84.5 125.472656 85.203125 125.746094 85.925781 125.964844 C 86.648438 126.183594 87.382812 126.351562 88.128906 126.464844 C 88.878906 126.574219 89.628906 126.632812 90.382812 126.632812 L 98.246094 126.632812 C 98.074219 126.984375 97.921875 127.339844 97.792969 127.710938 C 97.667969 128.078125 97.5625 128.453125 97.484375 128.832031 C 97.402344 129.214844 97.347656 129.597656 97.316406 129.988281 C 97.285156 130.375 97.28125 130.765625 97.296875 131.152344 C 97.316406 131.542969 97.359375 131.929688 97.425781 132.3125 C 97.496094 132.695312 97.585938 133.074219 97.703125 133.445312 C 97.816406 133.820312 97.957031 134.183594 98.117188 134.535156 C 98.28125 134.890625 98.464844 135.234375 98.667969 135.566406 C 98.875 135.894531 99.097656 136.210938 99.34375 136.515625 C 99.589844 136.816406 99.855469 137.101562 100.136719 137.371094 C 100.417969 137.640625 100.714844 137.890625 101.027344 138.121094 C 101.34375 138.351562 101.671875 138.5625 102.011719 138.753906 C 102.351562 138.941406 102.703125 139.109375 103.0625 139.253906 C 103.425781 139.398438 103.792969 139.519531 104.171875 139.617188 C 104.546875 139.714844 104.929688 139.789062 105.316406 139.839844 C 105.703125 139.886719 106.089844 139.914062 106.480469 139.914062 C 106.871094 139.914062 107.257812 139.886719 107.644531 139.839844 C 108.03125 139.789062 108.414062 139.714844 108.789062 139.617188 C 109.167969 139.519531 109.535156 139.398438 109.898438 139.253906 C 110.261719 139.109375 110.609375 138.941406 110.953125 138.753906 C 111.292969 138.5625 111.617188 138.351562 111.933594 138.121094 C 112.246094 137.890625 112.542969 137.640625 112.824219 137.371094 C 113.109375 137.101562 113.371094 136.816406 113.617188 136.515625 C 113.863281 136.210938 114.089844 135.894531 114.292969 135.566406 C 114.5 135.234375 114.683594 134.890625 114.84375 134.535156 C 115.003906 134.183594 115.144531 133.820312 115.261719 133.445312 C 115.375 133.074219 115.46875 132.695312 115.535156 132.3125 C 115.601562 131.929688 115.644531 131.542969 115.664062 131.152344 C 115.683594 130.765625 115.675781 130.375 115.644531 129.988281 C 115.613281 129.597656 115.558594 129.214844 115.476562 128.832031 C 115.398438 128.453125 115.292969 128.078125 115.167969 127.710938 C 115.039062 127.339844 114.890625 126.984375 114.714844 126.632812 L 143.097656 126.632812 C 142.925781 126.980469 142.777344 127.339844 142.648438 127.707031 C 142.523438 128.074219 142.417969 128.449219 142.339844 128.832031 C 142.257812 129.210938 142.203125 129.597656 142.171875 129.984375 C 142.140625 130.371094 142.136719 130.757812 142.15625 131.148438 C 142.171875 131.535156 142.214844 131.921875 142.285156 132.304688 C 142.351562 132.6875 142.441406 133.066406 142.558594 133.4375 C 142.675781 133.808594 142.8125 134.171875 142.976562 134.527344 C 143.136719 134.878906 143.320312 135.222656 143.523438 135.550781 C 143.730469 135.882812 143.957031 136.199219 144.199219 136.5 C 144.445312 136.800781 144.710938 137.085938 144.992188 137.355469 C 145.273438 137.625 145.570312 137.875 145.882812 138.105469 C 146.195312 138.335938 146.523438 138.546875 146.863281 138.734375 C 147.203125 138.921875 147.554688 139.089844 147.914062 139.234375 C 148.277344 139.378906 148.644531 139.5 149.019531 139.597656 C 149.398438 139.695312 149.777344 139.769531 150.164062 139.820312 C 150.550781 139.867188 150.9375 139.894531 151.328125 139.894531 C 151.714844 139.894531 152.105469 139.867188 152.488281 139.820312 C 152.875 139.769531 153.257812 139.695312 153.632812 139.597656 C 154.007812 139.5 154.378906 139.378906 154.738281 139.234375 C 155.101562 139.089844 155.453125 138.921875 155.792969 138.734375 C 156.132812 138.546875 156.457031 138.335938 156.769531 138.105469 C 157.085938 137.875 157.382812 137.625 157.664062 137.355469 C 157.945312 137.085938 158.207031 136.800781 158.453125 136.5 C 158.699219 136.199219 158.925781 135.882812 159.128906 135.550781 C 159.335938 135.222656 159.519531 134.878906 159.679688 134.527344 C 159.839844 134.171875 159.980469 133.808594 160.09375 133.4375 C 160.210938 133.066406 160.300781 132.6875 160.371094 132.304688 C 160.4375 131.921875 160.480469 131.535156 160.5 131.148438 C 160.519531 130.757812 160.511719 130.371094 160.480469 129.984375 C 160.449219 129.597656 160.394531 129.210938 160.316406 128.832031 C 160.234375 128.449219 160.132812 128.074219 160.003906 127.707031 C 159.878906 127.339844 159.726562 126.980469 159.554688 126.632812 L 169.878906 126.632812 C 170.214844 126.632812 170.546875 126.601562 170.878906 126.535156 C 171.207031 126.46875 171.527344 126.371094 171.839844 126.242188 C 172.148438 126.113281 172.445312 125.957031 172.726562 125.769531 C 173.003906 125.582031 173.261719 125.371094 173.5 125.132812 C 173.738281 124.894531 173.949219 124.636719 174.136719 124.359375 C 174.324219 124.078125 174.480469 123.78125 174.609375 123.472656 C 174.738281 123.160156 174.835938 122.839844 174.902344 122.511719 C 174.96875 122.183594 175 121.847656 175 121.511719 C 175 121.175781 174.96875 120.84375 174.902344 120.511719 C 174.835938 120.183594 174.738281 119.863281 174.609375 119.554688 C 174.480469 119.242188 174.324219 118.945312 174.136719 118.667969 C 173.949219 118.386719 173.738281 118.128906 173.5 117.890625 C 173.261719 117.652344 173.003906 117.441406 172.726562 117.253906 C 172.445312 117.066406 172.148438 116.910156 171.839844 116.78125 C 171.527344 116.652344 171.207031 116.554688 170.878906 116.488281 C 170.546875 116.425781 170.214844 116.390625 169.878906 116.390625 L 90.386719 116.390625 C 90.050781 116.390625 89.714844 116.359375 89.382812 116.292969 C 89.050781 116.226562 88.730469 116.128906 88.417969 116 C 88.109375 115.871094 87.8125 115.710938 87.53125 115.523438 C 87.25 115.335938 86.992188 115.125 86.75 114.886719 C 86.511719 114.648438 86.300781 114.386719 86.113281 114.105469 C 85.925781 113.824219 85.765625 113.53125 85.636719 113.21875 C 85.507812 112.90625 85.410156 112.585938 85.34375 112.253906 C 85.277344 111.921875 85.246094 111.589844 85.246094 111.25 C 85.246094 110.914062 85.277344 110.578125 85.34375 110.246094 C 85.410156 109.917969 85.507812 109.59375 85.636719 109.285156 C 85.765625 108.972656 85.925781 108.675781 86.113281 108.394531 C 86.300781 108.113281 86.511719 107.855469 86.75 107.617188 C 86.992188 107.378906 87.25 107.164062 87.53125 106.976562 C 87.8125 106.789062 88.109375 106.628906 88.417969 106.5 C 88.730469 106.371094 89.050781 106.273438 89.382812 106.207031 C 89.714844 106.144531 90.050781 106.109375 90.386719 106.109375 C 90.453125 106.109375 90.515625 106.097656 90.582031 106.097656 C 90.667969 106.101562 90.753906 106.109375 90.84375 106.109375 L 164.078125 106.109375 C 164.671875 106.109375 165.253906 106.011719 165.8125 105.808594 C 166.375 105.605469 166.886719 105.316406 167.347656 104.933594 C 167.804688 104.554688 168.1875 104.109375 168.492188 103.59375 C 168.792969 103.082031 169.003906 102.53125 169.113281 101.945312 L 173.253906 86.183594 C 173.316406 85.988281 173.371094 85.792969 173.410156 85.59375 L 177.554688 69.820312 C 177.625 69.605469 177.683594 69.386719 177.726562 69.164062 L 181.945312 53.105469 C 182.03125 52.78125 182.082031 52.453125 182.101562 52.117188 C 182.121094 51.78125 182.109375 51.449219 182.0625 51.117188 C 182.019531 50.785156 181.941406 50.460938 181.832031 50.140625 C 181.71875 49.824219 181.582031 49.523438 181.410156 49.230469 C 181.242188 48.941406 181.046875 48.671875 180.824219 48.421875 C 180.601562 48.171875 180.355469 47.941406 180.089844 47.742188 C 179.820312 47.539062 179.539062 47.363281 179.234375 47.214844 C 178.933594 47.070312 178.621094 46.953125 178.296875 46.867188 Z M 119.566406 95.871094 L 118.433594 89.714844 L 135.949219 89.714844 L 134.816406 95.871094 Z M 94.308594 95.871094 L 92.683594 89.714844 L 108.046875 89.714844 L 109.175781 95.871094 Z M 106.160156 79.472656 L 89.980469 79.472656 L 88.355469 73.316406 L 105.023438 73.316406 Z M 115.40625 73.316406 L 138.957031 73.316406 L 137.839844 79.472656 L 116.546875 79.472656 Z M 113.519531 63.074219 L 112.390625 56.917969 L 141.980469 56.917969 L 140.839844 63.078125 Z M 149.339844 73.316406 L 166.066406 73.316406 L 164.449219 79.472656 L 148.199219 79.472656 Z M 168.761719 63.074219 L 151.226562 63.074219 L 152.359375 56.917969 L 170.378906 56.917969 Z M 102 56.917969 L 103.132812 63.074219 L 85.652344 63.074219 L 84.027344 56.917969 Z M 145.183594 95.867188 L 146.3125 89.710938 L 161.757812 89.710938 L 160.136719 95.867188 Z M 297.609375 315.160156 C 297.609375 318.558594 295.578125 321.75 292.304688 324.15625 C 289.375 326.222656 286.140625 327.550781 282.601562 328.132812 L 282.601562 302.203125 C 286.144531 302.777344 289.378906 304.105469 292.304688 306.183594 C 295.578125 308.585938 297.609375 311.757812 297.609375 315.160156 Z M 277.484375 223.972656 C 276.292969 223.972656 275.105469 224.003906 273.917969 224.0625 C 272.730469 224.121094 271.542969 224.207031 270.359375 224.324219 C 269.175781 224.441406 267.996094 224.585938 266.820312 224.761719 C 265.644531 224.9375 264.472656 225.140625 263.308594 225.371094 C 262.140625 225.605469 260.980469 225.863281 259.828125 226.152344 C 258.675781 226.441406 257.527344 226.761719 256.390625 227.105469 C 255.253906 227.449219 254.125 227.824219 253.003906 228.226562 C 251.882812 228.625 250.773438 229.054688 249.675781 229.507812 C 248.578125 229.964844 247.492188 230.445312 246.417969 230.953125 C 245.339844 231.464844 244.28125 231.996094 243.230469 232.558594 C 242.183594 233.121094 241.148438 233.707031 240.128906 234.316406 C 239.109375 234.929688 238.105469 235.566406 237.113281 236.226562 C 236.125 236.886719 235.152344 237.570312 234.199219 238.28125 C 233.242188 238.988281 232.308594 239.71875 231.386719 240.472656 C 230.46875 241.230469 229.570312 242.003906 228.6875 242.804688 C 227.804688 243.601562 226.945312 244.421875 226.105469 245.265625 C 225.265625 246.105469 224.445312 246.964844 223.644531 247.847656 C 222.847656 248.726562 222.070312 249.628906 221.316406 250.546875 C 220.5625 251.46875 219.832031 252.40625 219.121094 253.359375 C 218.414062 254.316406 217.730469 255.289062 217.070312 256.277344 C 216.410156 257.265625 215.773438 258.269531 215.160156 259.289062 C 214.550781 260.308594 213.964844 261.34375 213.40625 262.394531 C 212.84375 263.441406 212.308594 264.503906 211.800781 265.578125 C 211.292969 266.65625 210.8125 267.742188 210.355469 268.839844 C 209.902344 269.9375 209.472656 271.046875 209.074219 272.167969 C 208.671875 273.289062 208.300781 274.417969 207.953125 275.554688 C 207.609375 276.691406 207.292969 277.839844 207.003906 278.992188 C 206.714844 280.144531 206.457031 281.304688 206.222656 282.472656 C 205.992188 283.636719 205.789062 284.808594 205.613281 285.984375 C 205.441406 287.164062 205.292969 288.34375 205.179688 289.527344 C 205.0625 290.710938 204.972656 291.894531 204.917969 293.082031 C 204.859375 294.269531 204.828125 295.460938 204.828125 296.648438 C 204.828125 297.835938 204.859375 299.027344 204.917969 300.214844 C 204.976562 301.402344 205.0625 302.585938 205.179688 303.769531 C 205.296875 304.953125 205.441406 306.132812 205.617188 307.308594 C 205.792969 308.488281 205.996094 309.65625 206.226562 310.824219 C 206.460938 311.992188 206.71875 313.152344 207.007812 314.304688 C 207.296875 315.457031 207.617188 316.601562 207.960938 317.742188 C 208.304688 318.878906 208.679688 320.007812 209.082031 321.128906 C 209.480469 322.246094 209.910156 323.355469 210.363281 324.457031 C 210.820312 325.554688 211.300781 326.640625 211.808594 327.714844 C 212.320312 328.789062 212.851562 329.851562 213.414062 330.902344 C 213.976562 331.949219 214.5625 332.984375 215.171875 334.003906 C 215.785156 335.023438 216.421875 336.027344 217.082031 337.015625 C 217.742188 338.003906 218.425781 338.976562 219.136719 339.933594 C 219.84375 340.886719 220.574219 341.824219 221.328125 342.742188 C 222.085938 343.664062 222.859375 344.5625 223.660156 345.445312 C 224.457031 346.324219 225.277344 347.1875 226.121094 348.027344 C 226.960938 348.867188 227.820312 349.6875 228.703125 350.484375 C 229.585938 351.285156 230.484375 352.0625 231.402344 352.816406 C 232.324219 353.570312 233.261719 354.300781 234.214844 355.007812 C 235.171875 355.71875 236.144531 356.402344 237.132812 357.0625 C 238.121094 357.722656 239.125 358.359375 240.144531 358.96875 C 241.164062 359.582031 242.199219 360.167969 243.25 360.726562 C 244.296875 361.289062 245.359375 361.820312 246.433594 362.332031 C 247.511719 362.839844 248.597656 363.320312 249.695312 363.773438 C 250.792969 364.230469 251.902344 364.65625 253.023438 365.058594 C 254.144531 365.457031 255.273438 365.832031 256.410156 366.175781 C 257.546875 366.523438 258.695312 366.839844 259.847656 367.128906 C 261 367.417969 262.160156 367.675781 263.328125 367.910156 C 264.496094 368.140625 265.664062 368.34375 266.84375 368.515625 C 268.019531 368.691406 269.199219 368.835938 270.382812 368.953125 C 271.566406 369.070312 272.75 369.15625 273.9375 369.214844 C 275.125 369.273438 276.316406 369.300781 277.503906 369.300781 C 278.691406 369.300781 279.882812 369.273438 281.070312 369.214844 C 282.257812 369.15625 283.441406 369.066406 284.625 368.953125 C 285.808594 368.835938 286.988281 368.6875 288.167969 368.515625 C 289.34375 368.339844 290.515625 368.136719 291.679688 367.902344 C 292.847656 367.671875 294.007812 367.410156 295.160156 367.121094 C 296.3125 366.832031 297.460938 366.515625 298.597656 366.171875 C 299.734375 365.824219 300.863281 365.453125 301.984375 365.050781 C 303.101562 364.652344 304.210938 364.222656 305.3125 363.765625 C 306.410156 363.3125 307.496094 362.828125 308.570312 362.320312 C 309.644531 361.8125 310.707031 361.277344 311.757812 360.71875 C 312.804688 360.15625 313.839844 359.570312 314.859375 358.957031 C 315.878906 358.347656 316.882812 357.710938 317.871094 357.050781 C 318.859375 356.390625 319.832031 355.703125 320.789062 354.996094 C 321.742188 354.289062 322.679688 353.554688 323.601562 352.800781 C 324.519531 352.046875 325.417969 351.269531 326.300781 350.472656 C 327.179688 349.671875 328.042969 348.851562 328.882812 348.011719 C 329.722656 347.171875 330.542969 346.308594 331.339844 345.429688 C 332.140625 344.546875 332.917969 343.648438 333.671875 342.726562 C 334.425781 341.808594 335.15625 340.871094 335.863281 339.914062 C 336.574219 338.960938 337.257812 337.988281 337.917969 337 C 338.578125 336.011719 339.214844 335.007812 339.824219 333.984375 C 340.4375 332.964844 341.023438 331.929688 341.582031 330.882812 C 342.144531 329.832031 342.675781 328.769531 343.1875 327.695312 C 343.695312 326.621094 344.175781 325.535156 344.628906 324.4375 C 345.085938 323.335938 345.511719 322.226562 345.914062 321.109375 C 346.3125 319.988281 346.6875 318.859375 347.03125 317.722656 C 347.378906 316.582031 347.695312 315.4375 347.984375 314.285156 C 348.273438 313.128906 348.53125 311.96875 348.765625 310.804688 C 348.996094 309.636719 349.199219 308.464844 349.375 307.289062 C 349.546875 306.113281 349.691406 304.933594 349.808594 303.75 C 349.925781 302.566406 350.011719 301.378906 350.070312 300.191406 C 350.128906 299.003906 350.15625 297.816406 350.15625 296.628906 C 350.15625 295.4375 350.128906 294.25 350.070312 293.0625 C 350.011719 291.875 349.925781 290.6875 349.808594 289.503906 C 349.691406 288.320312 349.546875 287.140625 349.371094 285.964844 C 349.199219 284.789062 348.996094 283.617188 348.761719 282.449219 C 348.53125 281.285156 348.269531 280.125 347.980469 278.96875 C 347.691406 277.816406 347.375 276.671875 347.03125 275.53125 C 346.683594 274.394531 346.3125 273.265625 345.910156 272.144531 C 345.511719 271.027344 345.082031 269.917969 344.628906 268.816406 C 344.171875 267.71875 343.691406 266.632812 343.183594 265.558594 C 342.671875 264.480469 342.140625 263.421875 341.578125 262.371094 C 341.015625 261.324219 340.429688 260.289062 339.820312 259.269531 C 339.207031 258.25 338.570312 257.242188 337.910156 256.253906 C 337.25 255.265625 336.566406 254.292969 335.855469 253.339844 C 335.148438 252.382812 334.417969 251.445312 333.664062 250.527344 C 332.90625 249.609375 332.132812 248.707031 331.332031 247.828125 C 330.535156 246.945312 329.714844 246.085938 328.871094 245.242188 C 328.03125 244.402344 327.171875 243.582031 326.289062 242.785156 C 325.40625 241.988281 324.507812 241.210938 323.589844 240.457031 C 322.667969 239.703125 321.730469 238.96875 320.777344 238.261719 C 319.820312 237.554688 318.847656 236.871094 317.859375 236.207031 C 316.871094 235.546875 315.867188 234.914062 314.84375 234.300781 C 313.824219 233.691406 312.789062 233.105469 311.742188 232.542969 C 310.691406 231.984375 309.628906 231.449219 308.554688 230.941406 C 307.480469 230.433594 306.394531 229.949219 305.292969 229.496094 C 304.195312 229.042969 303.085938 228.613281 301.964844 228.214844 C 300.847656 227.8125 299.71875 227.441406 298.578125 227.09375 C 297.441406 226.75 296.292969 226.433594 295.140625 226.144531 C 293.988281 225.855469 292.828125 225.597656 291.660156 225.363281 C 290.496094 225.132812 289.324219 224.929688 288.144531 224.757812 C 286.96875 224.582031 285.789062 224.4375 284.605469 224.320312 C 283.421875 224.203125 282.238281 224.117188 281.050781 224.058594 C 279.859375 224 278.671875 223.972656 277.484375 223.972656 Z M 298.355469 332.382812 C 296.027344 334.042969 293.527344 335.386719 290.863281 336.417969 C 288.195312 337.449219 285.441406 338.136719 282.601562 338.476562 L 282.601562 346.832031 C 282.601562 347.167969 282.570312 347.5 282.503906 347.832031 C 282.4375 348.160156 282.34375 348.480469 282.214844 348.792969 C 282.085938 349.101562 281.925781 349.398438 281.738281 349.675781 C 281.554688 349.957031 281.339844 350.214844 281.101562 350.453125 C 280.867188 350.691406 280.605469 350.902344 280.328125 351.089844 C 280.046875 351.277344 279.753906 351.433594 279.441406 351.5625 C 279.132812 351.691406 278.8125 351.789062 278.480469 351.855469 C 278.152344 351.921875 277.816406 351.953125 277.480469 351.953125 C 277.144531 351.953125 276.8125 351.921875 276.484375 351.855469 C 276.152344 351.789062 275.832031 351.691406 275.523438 351.5625 C 275.210938 351.433594 274.917969 351.277344 274.636719 351.089844 C 274.355469 350.902344 274.097656 350.691406 273.859375 350.453125 C 273.621094 350.214844 273.410156 349.957031 273.222656 349.675781 C 273.035156 349.398438 272.878906 349.101562 272.75 348.792969 C 272.621094 348.480469 272.523438 348.160156 272.460938 347.832031 C 272.394531 347.5 272.359375 347.167969 272.359375 346.832031 L 272.359375 338.476562 C 268.242188 337.953125 264.332031 336.75 260.628906 334.871094 C 255.445312 332.175781 251.382812 328.257812 249.121094 323.617188 C 248.972656 323.3125 248.855469 323 248.769531 322.675781 C 248.683594 322.351562 248.628906 322.019531 248.605469 321.683594 C 248.585938 321.347656 248.597656 321.011719 248.644531 320.679688 C 248.6875 320.347656 248.765625 320.019531 248.875 319.703125 C 248.984375 319.382812 249.125 319.078125 249.292969 318.789062 C 249.464844 318.496094 249.660156 318.226562 249.882812 317.976562 C 250.105469 317.722656 250.351562 317.496094 250.621094 317.292969 C 250.890625 317.089844 251.175781 316.914062 251.480469 316.769531 C 251.78125 316.621094 252.097656 316.507812 252.421875 316.421875 C 252.746094 316.339844 253.078125 316.289062 253.414062 316.269531 C 253.75 316.25 254.085938 316.265625 254.417969 316.3125 C 254.753906 316.359375 255.078125 316.441406 255.394531 316.550781 C 255.710938 316.664062 256.015625 316.804688 256.304688 316.976562 C 256.59375 317.152344 256.863281 317.347656 257.113281 317.574219 C 257.363281 317.800781 257.589844 318.046875 257.789062 318.316406 C 257.988281 318.589844 258.164062 318.875 258.304688 319.179688 C 259.589844 321.792969 262.058594 324.113281 265.3125 325.792969 C 267.546875 326.921875 269.894531 327.703125 272.359375 328.132812 L 272.359375 301.414062 C 269.523438 301.074219 266.773438 300.390625 264.109375 299.355469 C 261.445312 298.324219 258.953125 296.980469 256.628906 295.320312 C 250.761719 291.03125 247.132812 284.933594 247.132812 278.097656 C 247.132812 271.277344 250.761719 265.183594 256.628906 260.890625 C 258.953125 259.230469 261.445312 257.886719 264.109375 256.855469 C 266.773438 255.824219 269.523438 255.136719 272.359375 254.796875 L 272.359375 246.441406 C 272.359375 246.105469 272.394531 245.773438 272.460938 245.445312 C 272.523438 245.113281 272.621094 244.792969 272.75 244.484375 C 272.878906 244.171875 273.035156 243.878906 273.222656 243.597656 C 273.410156 243.320312 273.621094 243.058594 273.859375 242.820312 C 274.097656 242.585938 274.355469 242.371094 274.636719 242.183594 C 274.917969 242 275.210938 241.839844 275.523438 241.710938 C 275.832031 241.582031 276.152344 241.484375 276.484375 241.421875 C 276.8125 241.355469 277.144531 241.320312 277.480469 241.320312 C 277.816406 241.320312 278.152344 241.355469 278.480469 241.421875 C 278.8125 241.484375 279.132812 241.582031 279.441406 241.710938 C 279.753906 241.839844 280.046875 242 280.328125 242.183594 C 280.605469 242.371094 280.867188 242.585938 281.101562 242.820312 C 281.339844 243.058594 281.554688 243.320312 281.738281 243.597656 C 281.925781 243.878906 282.085938 244.171875 282.214844 244.484375 C 282.34375 244.792969 282.4375 245.113281 282.503906 245.445312 C 282.570312 245.773438 282.601562 246.105469 282.601562 246.441406 L 282.601562 254.796875 C 286.730469 255.320312 290.644531 256.523438 294.355469 258.402344 C 299.539062 261.097656 303.601562 265.015625 305.859375 269.660156 C 306.007812 269.960938 306.121094 270.273438 306.203125 270.597656 C 306.289062 270.925781 306.339844 271.253906 306.359375 271.589844 C 306.378906 271.921875 306.363281 272.257812 306.316406 272.589844 C 306.269531 272.921875 306.191406 273.246094 306.082031 273.5625 C 305.96875 273.878906 305.828125 274.183594 305.660156 274.46875 C 305.488281 274.757812 305.292969 275.027344 305.070312 275.28125 C 304.84375 275.53125 304.597656 275.753906 304.332031 275.957031 C 304.0625 276.160156 303.777344 276.332031 303.476562 276.476562 C 303.175781 276.625 302.859375 276.738281 302.535156 276.824219 C 302.210938 276.90625 301.882812 276.957031 301.546875 276.976562 C 301.210938 276.996094 300.878906 276.980469 300.546875 276.933594 C 300.214844 276.886719 299.890625 276.808594 299.574219 276.699219 C 299.257812 276.585938 298.953125 276.445312 298.664062 276.277344 C 298.375 276.105469 298.105469 275.910156 297.855469 275.6875 C 297.605469 275.460938 297.378906 275.21875 297.179688 274.949219 C 296.976562 274.679688 296.800781 274.394531 296.65625 274.09375 C 295.390625 271.480469 292.925781 269.160156 289.671875 267.480469 C 287.433594 266.34375 285.078125 265.5625 282.601562 265.140625 L 282.601562 291.859375 C 285.441406 292.195312 288.195312 292.882812 290.863281 293.914062 C 293.53125 294.945312 296.027344 296.292969 298.355469 297.953125 C 304.222656 302.242188 307.851562 308.339844 307.851562 315.15625 C 307.851562 322 304.222656 328.074219 298.355469 332.382812 Z M 262.664062 269.121094 C 265.589844 267.050781 268.824219 265.726562 272.363281 265.140625 L 272.363281 291.070312 C 268.820312 290.496094 265.589844 289.167969 262.664062 287.089844 C 259.386719 284.6875 257.375 281.496094 257.375 278.097656 C 257.375 274.71875 259.386719 271.523438 262.664062 269.121094 Z M 262.664062 269.121094 " fill-opacity="1" fill-rule="evenodd"/></g></svg>