<svg xmlns="http://www.w3.org/2000/svg" xmlns:xlink="http://www.w3.org/1999/xlink" width="500" zoomAndPan="magnify" viewBox="0 0 375 374.999991" height="500" preserveAspectRatio="xMidYMid meet" version="1.0"><path fill="#09b067" d="M 0 67.691406 C 0 58.597656 3.714844 50.328125 9.691406 44.351562 C 15.683594 38.359375 23.9375 34.644531 33.050781 34.644531 L 82.183594 34.644531 L 79.503906 43.753906 C 74.28125 45.175781 69.832031 48.363281 66.851562 54.164062 C 65.710938 56.40625 64.960938 58.753906 64.554688 61.121094 L 33.050781 61.121094 C 31.246094 61.121094 29.597656 61.859375 28.40625 63.050781 C 27.214844 64.242188 26.460938 65.886719 26.460938 67.691406 C 26.460938 160.179688 26.460938 246.695312 26.460938 339.199219 C 26.460938 340.988281 27.214844 342.632812 28.40625 343.824219 C 29.597656 345.015625 31.246094 345.769531 33.050781 345.769531 L 253.054688 345.769531 C 254.84375 345.769531 256.488281 345.015625 257.679688 343.824219 C 258.871094 342.632812 259.625 340.988281 259.625 339.199219 L 259.625 299.492188 C 259.625 298.929688 259.800781 298.441406 260.167969 298.003906 L 282.003906 271.996094 C 282.652344 271.246094 283.632812 270.980469 284.5625 271.3125 C 285.492188 271.664062 286.085938 272.503906 286.085938 273.488281 L 286.085938 339.199219 C 286.085938 348.292969 282.371094 356.546875 276.394531 362.539062 C 270.402344 368.515625 262.148438 372.230469 253.054688 372.230469 L 33.050781 372.230469 C 23.9375 372.230469 15.683594 368.515625 9.691406 362.539062 C 3.714844 356.546875 0 348.292969 0 339.199219 C 0 246.695312 0 160.179688 0 67.691406 Z M 259.625 157.308594 L 259.625 67.691406 C 259.625 65.886719 258.871094 64.242188 257.679688 63.050781 C 256.488281 61.859375 254.84375 61.121094 253.054688 61.121094 L 221.53125 61.121094 C 221.128906 58.753906 220.375 56.40625 219.234375 54.164062 C 216.253906 48.363281 211.804688 45.175781 206.582031 43.753906 L 203.902344 34.644531 L 253.054688 34.644531 C 262.148438 34.644531 270.402344 38.359375 276.394531 44.351562 C 282.371094 50.328125 286.085938 58.597656 286.085938 67.691406 L 286.085938 131.441406 C 286.085938 132.089844 285.859375 132.632812 285.421875 133.074219 C 284.949219 133.546875 284.492188 134.035156 284.054688 134.5625 L 263.691406 158.796875 C 263.0625 159.550781 262.0625 159.8125 261.132812 159.480469 C 260.203125 159.128906 259.625 158.289062 259.625 157.308594 Z M 259.625 157.308594 " fill-opacity="1" fill-rule="evenodd"/><path fill="#3e81f3" d="M 110.746094 24.304688 L 124.1875 22.253906 L 124.1875 15.386719 C 124.1875 8.375 129.9375 2.628906 136.960938 2.628906 L 149.125 2.628906 C 156.152344 2.628906 161.898438 8.375 161.898438 15.386719 L 161.898438 22.253906 L 175.339844 24.304688 C 182.734375 25.445312 187.550781 29.195312 189.972656 37.394531 L 195.769531 57.089844 C 195.929688 57.617188 203.710938 54.882812 206.652344 60.613281 C 209.230469 65.660156 207.125 72.265625 201.414062 72.265625 L 84.671875 72.265625 C 78.960938 72.265625 76.859375 65.660156 79.433594 60.613281 C 82.378906 54.882812 90.15625 57.617188 90.316406 57.089844 L 96.132812 37.394531 C 98.535156 29.195312 103.351562 25.445312 110.746094 24.304688 Z M 110.746094 24.304688 " fill-opacity="1" fill-rule="evenodd"/><path fill="#3e81f3" d="M 306.132812 145.179688 L 321.203125 157.851562 L 336.273438 170.519531 C 338.972656 172.78125 339.425781 176.722656 337.289062 179.28125 L 249.460938 283.808594 C 248.621094 284.808594 247.414062 285.226562 246.152344 284.984375 C 244.871094 284.738281 243.90625 283.878906 243.503906 282.652344 C 241.824219 277.429688 235.09375 275.992188 227.503906 275.34375 C 226.085938 275.238281 224.808594 274.679688 223.773438 273.820312 C 222.738281 272.945312 221.96875 271.769531 221.617188 270.402344 C 219.691406 263.027344 217.097656 256.664062 211.664062 255.894531 C 210.386719 255.71875 209.386719 254.914062 208.914062 253.703125 C 208.457031 252.492188 208.667969 251.234375 209.492188 250.234375 L 297.320312 145.707031 C 299.472656 143.148438 303.433594 142.921875 306.132812 145.179688 Z M 195.980469 268.074219 L 205.496094 265.585938 C 207.441406 265.09375 209.371094 265.496094 211.050781 266.757812 C 212.714844 268.019531 213.328125 269.824219 213.699219 271.804688 L 214.679688 276.972656 C 215.027344 278.832031 215.554688 280.53125 217.0625 281.8125 C 218.570312 283.074219 220.339844 283.28125 222.230469 283.316406 L 227.488281 283.386719 C 229.503906 283.421875 231.394531 283.703125 232.921875 285.140625 C 234.445312 286.558594 235.179688 288.398438 235.023438 290.398438 L 234.21875 300.191406 C 234.113281 301.453125 233.410156 302.472656 232.289062 303.015625 L 189.042969 324.390625 C 186.78125 325.496094 184.117188 325.128906 182.085938 323.429688 C 180.050781 321.710938 179.246094 319.171875 179.949219 316.753906 L 193.546875 270.457031 C 193.894531 269.265625 194.773438 268.40625 195.980469 268.074219 Z M 313.703125 136.839844 L 343.195312 161.601562 C 346.070312 164.019531 350.292969 163.808594 352.550781 161.09375 L 363.90625 147.597656 C 374.140625 135.402344 369.324219 120.945312 359.371094 112.535156 C 349.378906 104.105469 334.222656 101.792969 323.953125 114.007812 L 312.597656 127.515625 C 310.320312 130.234375 310.828125 134.421875 313.703125 136.839844 Z M 313.703125 136.839844 " fill-opacity="1" fill-rule="evenodd"/><path fill="#3e81f3" d="M 60.980469 127.78125 L 72.25 135.5625 L 88.808594 111.921875 C 89.71875 110.625 91.542969 110.292969 92.855469 111.222656 L 99.953125 116.179688 C 100.601562 116.636719 101.003906 117.265625 101.144531 118.054688 C 101.285156 118.84375 101.128906 119.578125 100.671875 120.226562 L 79.976562 149.753906 L 77.488281 153.292969 C 76.578125 154.609375 74.773438 154.925781 73.457031 154.011719 L 69.917969 151.578125 L 52.746094 139.714844 C 51.429688 138.800781 51.097656 136.980469 52.007812 135.664062 L 56.949219 128.535156 C 57.863281 127.203125 59.667969 126.871094 60.980469 127.78125 Z M 60.980469 127.78125 " fill-opacity="1" fill-rule="nonzero"/><path fill="#3e81f3" d="M 60.980469 190.445312 L 72.25 198.207031 L 88.808594 174.585938 C 89.71875 173.269531 91.542969 172.957031 92.855469 173.867188 L 99.953125 178.824219 C 100.601562 179.28125 101.003906 179.914062 101.144531 180.699219 C 101.285156 181.488281 101.128906 182.226562 100.671875 182.875 L 79.976562 212.402344 L 77.488281 215.941406 C 76.578125 217.253906 74.773438 217.570312 73.457031 216.675781 L 69.917969 214.222656 L 52.746094 202.359375 C 51.429688 201.449219 51.097656 199.644531 52.007812 198.3125 L 56.949219 191.179688 C 57.863281 189.867188 59.667969 189.53125 60.980469 190.445312 Z M 60.980469 190.445312 " fill-opacity="1" fill-rule="nonzero"/><path fill="#3e81f3" d="M 60.980469 253.089844 L 72.25 260.871094 L 88.808594 237.230469 C 89.71875 235.917969 91.542969 235.601562 92.855469 236.511719 L 99.953125 241.472656 C 100.601562 241.945312 101.003906 242.558594 101.144531 243.347656 C 101.285156 244.136719 101.128906 244.871094 100.671875 245.539062 L 79.976562 275.0625 L 77.488281 278.605469 C 76.578125 279.902344 74.773438 280.234375 73.457031 279.324219 L 69.917969 276.871094 L 52.746094 265.023438 C 51.429688 264.113281 51.097656 262.289062 52.007812 260.976562 L 56.949219 253.824219 C 57.863281 252.511719 59.667969 252.179688 60.980469 253.089844 Z M 60.980469 253.089844 " fill-opacity="1" fill-rule="nonzero"/><path fill="#09b067" d="M 122.980469 124.925781 L 216.675781 124.925781 C 217.078125 124.925781 217.464844 125.019531 217.835938 125.207031 C 218.207031 125.398438 218.535156 125.667969 218.820312 126.015625 C 219.105469 126.367188 219.324219 126.769531 219.476562 127.226562 C 219.632812 127.683594 219.707031 128.160156 219.707031 128.65625 L 219.707031 136.578125 C 219.707031 137.070312 219.632812 137.546875 219.476562 138.003906 C 219.324219 138.460938 219.105469 138.867188 218.820312 139.214844 C 218.535156 139.566406 218.207031 139.835938 217.835938 140.027344 C 217.464844 140.214844 217.078125 140.308594 216.675781 140.308594 L 122.980469 140.308594 C 122.578125 140.308594 122.191406 140.214844 121.820312 140.027344 C 121.449219 139.835938 121.121094 139.566406 120.835938 139.214844 C 120.550781 138.867188 120.332031 138.460938 120.179688 138.003906 C 120.023438 137.546875 119.949219 137.070312 119.949219 136.578125 L 119.949219 128.65625 C 119.949219 128.160156 120.023438 127.683594 120.179688 127.226562 C 120.332031 126.769531 120.550781 126.367188 120.835938 126.015625 C 121.121094 125.667969 121.449219 125.398438 121.820312 125.207031 C 122.191406 125.019531 122.578125 124.925781 122.980469 124.925781 Z M 122.980469 124.925781 " fill-opacity="1" fill-rule="evenodd"/><path fill="#09b067" d="M 122.980469 187.570312 L 216.675781 187.570312 C 217.078125 187.570312 217.464844 187.664062 217.835938 187.855469 C 218.207031 188.042969 218.535156 188.3125 218.820312 188.664062 C 219.105469 189.011719 219.324219 189.417969 219.476562 189.875 C 219.632812 190.332031 219.707031 190.808594 219.707031 191.300781 L 219.707031 199.222656 C 219.707031 199.71875 219.632812 200.195312 219.476562 200.652344 C 219.324219 201.109375 219.105469 201.511719 218.820312 201.863281 C 218.535156 202.210938 218.207031 202.480469 217.835938 202.671875 C 217.464844 202.859375 217.078125 202.957031 216.675781 202.957031 L 122.980469 202.957031 C 122.578125 202.957031 122.191406 202.859375 121.820312 202.671875 C 121.449219 202.480469 121.121094 202.210938 120.835938 201.863281 C 120.550781 201.511719 120.332031 201.109375 120.179688 200.652344 C 120.023438 200.195312 119.949219 199.71875 119.949219 199.222656 L 119.949219 191.300781 C 119.949219 190.808594 120.023438 190.332031 120.179688 189.875 C 120.332031 189.417969 120.550781 189.011719 120.835938 188.664062 C 121.121094 188.3125 121.449219 188.042969 121.820312 187.855469 C 122.191406 187.664062 122.578125 187.570312 122.980469 187.570312 Z M 122.980469 187.570312 " fill-opacity="1" fill-rule="evenodd"/><path fill="#09b067" d="M 121.015625 250.214844 L 153.835938 250.214844 C 153.980469 250.214844 154.117188 250.3125 154.246094 250.5 C 154.378906 250.691406 154.492188 250.960938 154.59375 251.308594 C 154.695312 251.660156 154.769531 252.0625 154.824219 252.519531 C 154.878906 252.976562 154.90625 253.453125 154.90625 253.949219 L 154.90625 261.871094 C 154.90625 262.363281 154.878906 262.839844 154.824219 263.296875 C 154.769531 263.753906 154.695312 264.160156 154.59375 264.507812 C 154.492188 264.859375 154.378906 265.128906 154.246094 265.316406 C 154.117188 265.507812 153.980469 265.601562 153.835938 265.601562 L 121.015625 265.601562 C 120.875 265.601562 120.738281 265.507812 120.605469 265.316406 C 120.476562 265.128906 120.359375 264.859375 120.261719 264.507812 C 120.160156 264.160156 120.082031 263.753906 120.027344 263.296875 C 119.972656 262.839844 119.949219 262.363281 119.949219 261.871094 L 119.949219 253.949219 C 119.949219 253.453125 119.972656 252.976562 120.027344 252.519531 C 120.082031 252.0625 120.160156 251.660156 120.261719 251.308594 C 120.359375 250.960938 120.476562 250.691406 120.605469 250.5 C 120.738281 250.3125 120.875 250.214844 121.015625 250.214844 Z M 121.015625 250.214844 " fill-opacity="1" fill-rule="evenodd"/></svg>