<svg xmlns="http://www.w3.org/2000/svg" xmlns:xlink="http://www.w3.org/1999/xlink" width="500" zoomAndPan="magnify" viewBox="0 0 375 374.999991" height="500" preserveAspectRatio="xMidYMid meet" version="1.0"><defs><clipPath id="08998bae9c"><path d="M 179.199219 90.742188 L 350.304688 90.742188 L 350.304688 367.734375 L 179.199219 367.734375 Z M 179.199219 90.742188 " clip-rule="nonzero"/></clipPath><clipPath id="14d13990fb"><path d="M 5 7.265625 L 241 7.265625 L 241 115 L 5 115 Z M 5 7.265625 " clip-rule="nonzero"/></clipPath><clipPath id="3ff39d10bd"><path d="M 0.0390625 90.742188 L 171 90.742188 L 171 367.734375 L 0.0390625 367.734375 Z M 0.0390625 90.742188 " clip-rule="nonzero"/></clipPath></defs><path fill="#3e81f3" d="M 280.578125 176.734375 C 277.171875 176.734375 274.398438 179.507812 274.398438 182.917969 L 274.398438 186.742188 C 274.398438 190.148438 277.171875 192.921875 280.578125 192.921875 L 329.921875 192.921875 C 333.328125 192.921875 336.101562 190.148438 336.101562 186.742188 L 336.101562 182.917969 C 336.101562 179.507812 333.328125 176.734375 329.921875 176.734375 L 280.578125 176.734375 " fill-opacity="1" fill-rule="nonzero"/><path fill="#3e81f3" d="M 316.269531 161.5625 L 294.230469 161.5625 C 293.292969 161.5625 292.53125 162.324219 292.53125 163.261719 L 292.53125 168.496094 L 317.96875 168.496094 L 317.96875 163.261719 C 317.96875 162.324219 317.207031 161.5625 316.269531 161.5625 " fill-opacity="1" fill-rule="nonzero"/><path fill="#3e81f3" d="M 351.742188 245.300781 L 288.953125 245.300781 C 286.675781 245.300781 284.832031 243.453125 284.832031 241.179688 C 284.832031 238.902344 286.675781 237.058594 288.953125 237.058594 L 351.742188 237.058594 C 354.015625 237.058594 355.859375 238.902344 355.859375 241.179688 C 355.859375 243.453125 354.015625 245.300781 351.742188 245.300781 Z M 351.742188 274.777344 L 288.953125 274.777344 C 286.675781 274.777344 284.832031 272.9375 284.832031 270.65625 C 284.832031 268.382812 286.675781 266.539062 288.953125 266.539062 L 351.742188 266.539062 C 354.015625 266.539062 355.859375 268.382812 355.859375 270.65625 C 355.859375 272.9375 354.015625 274.777344 351.742188 274.777344 Z M 351.742188 304.257812 L 288.953125 304.257812 C 286.675781 304.257812 284.832031 302.414062 284.832031 300.136719 C 284.832031 297.863281 286.675781 296.015625 288.953125 296.015625 L 351.742188 296.015625 C 354.015625 296.015625 355.859375 297.863281 355.859375 300.136719 C 355.859375 302.414062 354.015625 304.257812 351.742188 304.257812 Z M 265.25 247.667969 C 261.667969 247.667969 258.761719 244.765625 258.761719 241.179688 C 258.761719 237.597656 261.667969 234.6875 265.25 234.6875 C 268.832031 234.6875 271.738281 237.597656 271.738281 241.179688 C 271.738281 244.765625 268.832031 247.667969 265.25 247.667969 Z M 265.25 277.148438 C 261.667969 277.148438 258.761719 274.246094 258.761719 270.65625 C 258.761719 267.074219 261.667969 264.171875 265.25 264.171875 C 268.832031 264.171875 271.738281 267.074219 271.738281 270.65625 C 271.738281 274.246094 268.832031 277.148438 265.25 277.148438 Z M 265.25 306.628906 C 261.667969 306.628906 258.761719 303.722656 258.761719 300.136719 C 258.761719 296.554688 261.667969 293.648438 265.25 293.648438 C 268.832031 293.648438 271.738281 296.554688 271.738281 300.136719 C 271.738281 303.722656 268.832031 306.628906 265.25 306.628906 Z M 370.351562 187.101562 L 344.339844 187.101562 C 344.148438 194.886719 337.753906 201.164062 329.921875 201.164062 L 280.578125 201.164062 C 272.746094 201.164062 266.355469 194.886719 266.164062 187.101562 L 240.148438 187.101562 C 237.605469 187.101562 235.539062 189.164062 235.539062 191.707031 L 235.539062 349.609375 C 235.539062 352.148438 237.605469 354.214844 240.148438 354.214844 L 370.351562 354.214844 C 372.890625 354.214844 374.960938 352.148438 374.960938 349.609375 L 374.960938 191.707031 C 374.960938 189.164062 372.890625 187.101562 370.351562 187.101562 " fill-opacity="1" fill-rule="nonzero"/><path fill="#09b067" d="M 280.097656 55.171875 L 270.171875 50.644531 L 100.933594 127.851562 L 102.535156 128.582031 C 102.597656 128.609375 102.65625 128.636719 102.71875 128.664062 L 110.855469 132.378906 L 175.082031 161.679688 L 344.320312 84.472656 L 280.097656 55.171875 " fill-opacity="1" fill-rule="nonzero"/><g clip-path="url(#08998bae9c)"><path fill="#09b067" d="M 266.742188 178.859375 C 268.496094 172.878906 274.035156 168.496094 280.578125 168.496094 L 284.289062 168.496094 L 284.289062 163.261719 C 284.289062 157.78125 288.753906 153.324219 294.230469 153.324219 L 316.269531 153.324219 C 321.75 153.324219 326.210938 157.78125 326.210938 163.261719 L 326.210938 168.496094 L 329.921875 168.496094 C 336.46875 168.496094 342.003906 172.878906 343.761719 178.859375 L 350.125 178.859375 L 350.125 90.878906 L 179.203125 168.855469 L 179.203125 367.734375 L 227.300781 345.789062 L 227.300781 191.707031 C 227.300781 184.621094 233.0625 178.859375 240.148438 178.859375 L 266.742188 178.859375 " fill-opacity="1" fill-rule="nonzero"/></g><g clip-path="url(#14d13990fb)"><path fill="#09b067" d="M 62.847656 110.476562 C 62.910156 110.503906 62.972656 110.53125 63.035156 110.5625 L 71.167969 114.269531 L 240.410156 37.066406 L 230.480469 32.535156 L 175.082031 7.265625 L 5.84375 84.472656 L 61.242188 109.746094 L 62.847656 110.476562 " fill-opacity="1" fill-rule="nonzero"/></g><g clip-path="url(#3ff39d10bd)"><path fill="#09b067" d="M 56.242188 288.257812 L 23.136719 273.15625 L 23.136719 244.523438 L 56.242188 259.628906 Z M 99.148438 136.09375 L 96.8125 135.03125 L 96.8125 173.835938 L 65.367188 159.492188 L 65.367188 120.679688 L 59.566406 118.039062 C 59.519531 118.015625 59.472656 117.992188 59.421875 117.96875 L 57.125 116.925781 L 0.0390625 90.878906 L 0.0390625 289.757812 L 170.964844 367.734375 L 170.964844 168.855469 L 105.050781 138.789062 L 99.148438 136.09375 " fill-opacity="1" fill-rule="nonzero"/></g></svg>